<svg width="67" height="37" viewBox="0 0 67 37" fill="none" xmlns="http://www.w3.org/2000/svg">
<path d="M15.65 36.2001C12.5833 36.2001 9.86667 35.4668 7.5 34.0001C5.16667 32.5001 3.33333 30.4168 2 27.7501C0.666667 25.0501 7.45058e-09 21.9168 7.45058e-09 18.3501C7.45058e-09 14.7501 0.7 11.5834 2.1 8.8501C3.53333 6.08343 5.55 3.91676 8.15 2.3501C10.7833 0.78343 13.9333 9.70364e-05 17.6 9.70364e-05C21.7333 9.70364e-05 25.15 0.98343 27.85 2.95009C30.5833 4.91676 32.35 7.6501 33.15 11.1501H25.6C25.1 9.61676 24.1667 8.41676 22.8 7.5501C21.4333 6.6501 19.6833 6.2001 17.55 6.2001C15.2833 6.2001 13.35 6.7001 11.75 7.7001C10.15 8.7001 8.93333 10.1001 8.1 11.9001C7.3 13.7001 6.9 15.8501 6.9 18.3501C6.9 20.8834 7.3 23.0334 8.1 24.8001C8.93333 26.5668 10.1167 27.9168 11.65 28.8501C13.2167 29.7501 15.05 30.2001 17.15 30.2001C20.2167 30.2001 22.5333 29.3834 24.1 27.7501C25.7 26.0834 26.65 23.9334 26.95 21.3001H18.35V16.2501H33.75V35.6001H27.6L27.05 29.7001H26.85C26.0833 31.0668 25.15 32.2501 24.05 33.2501C22.95 34.2168 21.6833 34.9501 20.25 35.4501C18.85 35.9501 17.3167 36.2001 15.65 36.2001ZM51.9941 36.2001C49.4275 36.2001 47.0941 35.6834 44.9941 34.6501C42.8941 33.6168 41.2275 32.0668 39.9941 30.0001C38.7608 27.9334 38.1441 25.3001 38.1441 22.1001V0.600095H44.8941V22.1501C44.8941 23.8834 45.1775 25.3501 45.7441 26.5501C46.3108 27.7168 47.1441 28.5834 48.2441 29.1501C49.3441 29.7168 50.6441 30.0001 52.1441 30.0001C53.6775 30.0001 54.9775 29.7168 56.0441 29.1501C57.1108 28.5834 57.9275 27.7168 58.4941 26.5501C59.0941 25.3501 59.3941 23.8834 59.3941 22.1501V0.600095H66.1441V22.1001C66.1441 25.3001 65.4941 27.9334 64.1941 30.0001C62.9275 32.0668 61.2275 33.6168 59.0941 34.6501C56.9608 35.6834 54.5941 36.2001 51.9941 36.2001Z" fill="white"/>
</svg>
